<svg xmlns="http://www.w3.org/2000/svg" width="512" height="512" viewBox="0 0 512 512" version="1.1"><path d="M 313.207 17.750 C 312.098 18.712, 310.089 21.525, 308.741 24 C 307.393 26.475, 304.200 32.025, 301.645 36.333 C 299.090 40.641, 297 44.296, 297 44.455 C 297 44.614, 294.607 48.739, 291.682 53.622 C 288.756 58.505, 284.998 64.975, 283.329 68 C 278.635 76.508, 276.314 80.539, 273.722 84.685 C 272.410 86.783, 269.845 91.200, 268.021 94.500 C 263.468 102.741, 263.260 103.103, 256.116 115.239 C 250.206 125.280, 249.526 126.051, 245.664 127.090 C 234.535 130.087, 226.236 136.908, 219.006 149 C 216.539 153.125, 213.973 157.400, 213.303 158.500 C 212.634 159.600, 211.628 161.512, 211.068 162.750 C 210.508 163.988, 209.692 165, 209.256 165 C 208.820 165, 204.006 160.527, 198.560 155.060 L 188.658 145.121 192.329 141.058 C 197.555 135.273, 197.370 131.740, 191.500 125.211 C 189.025 122.458, 187 119.555, 187 118.758 C 187 116.521, 194.229 105.862, 198.590 101.668 C 202.094 98.298, 217.085 90, 219.668 90 C 223.494 90, 225.904 81, 223.012 77.514 C 221.533 75.733, 209.505 69.431, 204.500 67.816 C 183.889 61.164, 162.104 63.621, 147 74.299 L 143.500 76.774 139.272 72.887 C 135.957 69.839, 134.249 69, 131.358 69 C 127.976 69, 126.608 70.053, 114.794 81.742 C 107.712 88.750, 101.662 95.500, 101.350 96.742 C 100.371 100.643, 101.792 103.674, 105.405 105.388 C 110.178 107.653, 112.006 106.681, 121.978 96.584 C 126.641 91.863, 130.912 88, 131.470 88 C 132.796 88, 177 132.173, 177 133.499 C 177 134.058, 165.524 145.984, 151.498 160.002 L 125.995 185.490 102.762 162.256 L 79.528 139.022 86.764 131.738 C 94.206 124.246, 95.153 122.059, 92.850 117.684 C 91.273 114.687, 90.061 114.033, 86.050 114.015 C 82.989 114.002, 81.384 115.216, 71.800 124.800 C 58.972 137.628, 58.449 139.277, 64.963 146.344 L 68.925 150.642 63.473 156.027 L 58.020 161.412 54.760 158.267 C 50.275 153.941, 47.139 152.892, 43.457 154.487 C 41.831 155.192, 34.987 161.373, 28.250 168.223 C 17.303 179.354, 16 181.049, 16 184.168 C 16 187.414, 18.137 189.790, 46.502 218.079 C 73.696 245.201, 77.385 248.534, 80.528 248.812 C 83.832 249.104, 84.845 248.351, 96.656 236.812 C 109.124 224.632, 112.576 219.813, 111.347 216.306 C 110.999 215.313, 109.109 212.810, 107.148 210.743 L 103.581 206.987 108.969 201.531 L 114.358 196.075 118.656 200.037 C 125.018 205.901, 127.330 205.540, 136.042 197.322 L 143.121 190.644 158.935 206.435 L 174.749 222.226 165.875 237.101 C 160.994 245.282, 157 252.635, 157 253.441 C 157 257.488, 159.295 259.922, 163.741 260.588 C 167.617 261.170, 168.492 260.947, 170.451 258.878 C 171.690 257.570, 186.783 233.100, 203.991 204.500 C 221.199 175.900, 236.678 150.981, 238.389 149.124 C 247.416 139.328, 264.576 139.328, 273.615 149.124 C 276.263 151.994, 448.398 435.981, 453.563 446 C 455.998 450.724, 456.002 461.261, 453.571 466 C 452.584 467.925, 450.364 471.001, 448.638 472.835 C 442.263 479.611, 443.312 479.449, 402.276 480 C 366.711 480.478, 364.966 480.589, 363.124 482.500 C 360.016 485.723, 359.567 490.179, 362.034 493.316 L 364.145 496 401.394 496 C 433.497 496, 439.325 495.770, 443.572 494.336 C 469.046 485.734, 479.340 456.273, 464.853 433.430 C 463.158 430.757, 458.139 422.479, 453.700 415.035 C 449.262 407.591, 444.741 400.495, 443.655 399.266 C 442.570 398.037, 439.065 392.643, 435.868 387.279 L 430.056 377.527 432.778 376.145 C 442.851 371.030, 447.784 359.650, 444.631 348.804 C 440.222 333.638, 421.819 327.126, 408.855 336.146 L 406.211 337.986 401.669 330.743 C 399.171 326.759, 397.436 323.197, 397.813 322.827 C 399.222 321.446, 428.608 304.709, 431.281 303.765 C 437.348 301.622, 438.470 302.975, 456.557 334.246 C 465.821 350.263, 473.587 364.637, 473.814 366.186 C 474.441 370.460, 471.789 373.491, 462.974 378.575 C 458.570 381.116, 454.483 384.098, 453.892 385.203 C 451.394 389.870, 455.371 397, 460.473 397 C 463.461 397, 478.873 388.064, 483.078 383.893 C 489.041 377.978, 491.508 367.699, 488.836 359.899 C 488.195 358.030, 482.719 347.950, 476.666 337.500 C 470.613 327.050, 463.235 314.232, 460.270 309.015 C 457.305 303.799, 453.821 298.143, 452.528 296.448 L 450.176 293.364 470.838 281.529 C 482.202 275.019, 492.512 268.784, 493.750 267.672 C 497.227 264.549, 496.681 260.019, 491.822 251.675 C 485.929 241.555, 484.354 240, 480 240 C 472.748 240, 469.693 247.530, 474.070 254.614 C 475.209 256.456, 475.889 258.371, 475.581 258.869 C 475.273 259.367, 471.529 261.772, 467.261 264.214 C 462.992 266.656, 449.150 274.637, 436.500 281.950 C 423.850 289.263, 411.700 296.275, 409.500 297.531 C 407.300 298.787, 401.947 301.848, 397.604 304.331 L 389.707 308.847 387.354 305.379 C 386.059 303.472, 385 301.711, 385 301.466 C 385 301.221, 381.589 295.524, 377.420 288.806 C 373.251 282.088, 369.156 275.268, 368.319 273.650 L 366.798 270.709 383.728 253.779 L 400.659 236.849 408.555 238.480 C 447.584 246.541, 484.405 223.414, 494.199 184.686 C 497.947 169.864, 494.965 144.016, 488.726 137.250 C 487.316 135.720, 485.503 135, 483.064 135 C 479.761 135, 478.193 136.287, 463.239 151.261 C 449.459 165.060, 447.002 167.975, 447.015 170.511 C 447.033 174.059, 447.757 175.310, 450.684 176.850 C 455.734 179.508, 457.828 178.455, 468.633 167.822 C 474.322 162.224, 479.233 157.900, 479.547 158.214 C 480.821 159.488, 479.988 177.721, 478.415 183 C 472.651 202.335, 457.211 217.584, 438.448 222.472 C 430.926 224.431, 417.074 224.431, 409.552 222.472 C 390.529 217.517, 374.468 201.410, 369.489 182.297 C 367.565 174.909, 367.584 161.018, 369.528 153.552 C 374.436 134.712, 389.679 119.255, 408.932 113.596 C 414.428 111.981, 434 111.296, 434 112.719 C 434 113.114, 425 122.477, 414 133.524 C 397.265 150.332, 394 154.082, 394 156.496 C 394 158.902, 397.107 162.504, 412.750 178.231 C 423.063 188.598, 432.546 197.345, 433.824 197.668 C 439.471 199.093, 443.994 193.541, 442.031 187.593 C 441.411 185.716, 435.428 178.912, 426.998 170.498 L 412.995 156.522 435.068 134.432 C 456.940 112.543, 457.138 112.307, 456.821 108.453 C 456.393 103.270, 452.623 100.782, 441.089 98.075 C 388.764 85.790, 342.787 130.474, 353.534 183.166 L 355.192 191.297 343.696 202.793 L 332.201 214.289 330.570 211.394 C 329.673 209.802, 328.165 207.286, 327.220 205.803 C 320.811 195.750, 315.962 186.647, 316.668 185.993 C 317.126 185.568, 320.034 184.500, 323.131 183.618 C 328.988 181.949, 332 179.028, 332 175.015 C 332 173.885, 329.947 168.872, 327.438 163.876 C 324.928 158.879, 323.040 154.627, 323.241 154.425 C 323.443 154.224, 326.508 153.342, 330.054 152.464 C 337.152 150.708, 341 147.531, 341 143.424 C 341 142.069, 338.975 136.928, 336.500 132 C 334.025 127.072, 332 122.806, 332 122.520 C 332 122.234, 332.718 122, 333.596 122 C 337.162 122, 346.200 118.701, 348.037 116.730 C 350.612 113.965, 350.519 111.636, 347.346 99.583 C 343.445 84.763, 338.538 79.452, 332.439 83.448 C 328.511 86.022, 328.090 88.553, 330.211 96.831 C 331.257 100.918, 331.899 104.820, 331.637 105.503 C 331.375 106.186, 327.910 107.542, 323.938 108.515 C 311.485 111.567, 310.428 114.919, 317.485 128.970 C 319.952 133.882, 321.639 138.084, 321.235 138.308 C 320.831 138.532, 317.475 139.518, 313.777 140.499 C 302.104 143.595, 301.310 146.221, 307.943 159.785 L 312.905 169.932 309.259 170.939 C 307.253 171.493, 305.547 171.845, 305.466 171.723 C 305.386 171.600, 301.556 165.200, 296.956 157.500 C 286.973 140.791, 281.900 135.061, 273.374 130.864 L 267.039 127.745 269.501 123.622 C 270.855 121.355, 282.884 100.504, 296.232 77.288 C 309.579 54.071, 321.016 35.058, 321.646 35.038 C 322.277 35.017, 329.252 38.728, 337.146 43.285 L 351.500 51.570 351.534 60.535 C 351.573 70.868, 352.601 73.383, 357.437 74.979 C 360.287 75.920, 361.321 75.836, 363.361 74.499 C 366.817 72.235, 367.114 71.065, 367.738 57.240 C 368.391 42.777, 368.583 43.147, 357.044 36.620 C 352.895 34.273, 343.147 28.673, 335.383 24.176 C 320.554 15.588, 316.911 14.533, 313.207 17.750 M 168.423 81.358 C 166.181 82.089, 162.020 83.953, 159.177 85.500 L 154.009 88.313 163.254 97.907 C 168.339 103.183, 172.982 107.630, 173.572 107.789 C 174.161 107.948, 175.192 106.874, 175.862 105.403 C 178.036 100.631, 186.130 91.143, 191.676 86.864 C 195.578 83.854, 196.785 82.385, 196 81.600 C 194.346 79.946, 173.322 79.762, 168.423 81.358 M 164.994 167.506 L 153.520 179.012 168.639 194.130 L 183.757 209.249 192.549 194.560 L 201.341 179.872 189.436 167.936 C 182.888 161.371, 177.292 156, 176.999 156 C 176.707 156, 171.304 161.178, 164.994 167.506 M 74.495 167.005 L 68.537 173.026 80.266 184.755 L 91.995 196.485 98 190.480 L 104.006 184.474 92.230 172.729 L 80.454 160.984 74.495 167.005 M 39.984 178.516 L 34.537 184.032 57.753 207.247 L 80.968 230.463 86.484 225.016 C 89.518 222.020, 92 219.099, 92 218.526 C 92 217.175, 47.809 173, 46.458 173 C 45.893 173, 42.980 175.482, 39.984 178.516 M 351.241 217.258 L 340.015 228.516 348.093 242.008 C 352.535 249.429, 356.590 255.936, 357.103 256.468 C 357.694 257.081, 363.167 252.317, 372.018 243.482 C 379.708 235.807, 386 229.227, 386 228.862 C 386 228.496, 384.579 227.297, 382.842 226.197 C 378.581 223.499, 368.349 213.300, 365.855 209.265 C 364.745 207.469, 363.529 206, 363.152 206 C 362.776 206, 357.416 211.066, 351.241 217.258 M 246.764 225.938 C 238.539 228.588, 229.950 237.310, 227.307 245.695 C 225.657 250.928, 225.711 253.267, 228.738 307.991 C 231.662 360.859, 232.035 365.153, 234.054 369.175 C 238.663 378.354, 246.038 383, 256 383 C 266.267 383, 273.884 378.038, 278.040 368.642 C 279.994 364.225, 280.444 358.961, 283.258 307.654 C 286.184 254.313, 286.255 251.220, 284.688 245.913 C 282.737 239.305, 276.918 232.208, 270.243 228.297 C 266.499 226.102, 264.239 225.574, 257.592 225.341 C 253.141 225.184, 248.269 225.453, 246.764 225.938 M 249.418 240.915 C 246.633 242.114, 242.152 247.548, 241.366 250.679 C 240.781 253.009, 245.271 343.975, 246.634 357.413 C 247.403 364.986, 250.069 368, 256 368 C 261.931 368, 264.597 364.986, 265.366 357.413 C 266.770 343.567, 271.210 252.973, 270.603 250.553 C 270.237 249.095, 268.442 246.270, 266.614 244.275 C 263.616 241.005, 262.711 240.618, 257.395 240.334 C 254.153 240.160, 250.563 240.422, 249.418 240.915 M 51.071 265.750 C 49.888 266.712, 41.516 280.325, 32.467 296 C 15.805 324.863, 14.317 328.409, 17.250 332.258 C 17.938 333.161, 23.900 337.013, 30.500 340.820 C 37.100 344.626, 51.725 353.054, 63 359.549 C 74.275 366.044, 83.684 371.499, 83.909 371.671 C 84.134 371.844, 75.273 386.972, 64.217 405.289 C 53.161 423.606, 43.347 440.821, 42.409 443.546 C 39.923 450.762, 40.139 463.017, 42.874 470 C 47.455 481.694, 56.256 490.156, 67.771 493.940 C 73.976 495.978, 75.442 496, 206.847 496 L 339.651 496 341.892 493.614 C 343.705 491.685, 344.006 490.550, 343.468 487.680 C 343.102 485.728, 341.899 483.314, 340.796 482.315 C 338.886 480.586, 332.480 480.476, 205.645 480 C 58.839 479.449, 70.256 479.983, 63.629 473.356 C 56.372 466.099, 54.239 453.939, 58.726 445.410 C 59.909 443.161, 82.280 405.900, 108.439 362.607 C 142.110 306.882, 156 283.048, 156 280.998 C 156 277.282, 152.087 273, 148.691 273 C 144.770 273, 141.872 276.330, 133.738 290.182 L 126.290 302.863 123.553 301.443 C 122.048 300.662, 117.145 297.823, 112.658 295.134 C 84.824 278.454, 58.533 264, 56.025 264 C 54.483 264, 52.254 264.788, 51.071 265.750 M 46.565 303.186 C 40.165 314.289, 35.130 323.895, 35.375 324.534 C 35.846 325.763, 91.277 358, 92.919 358 C 94.409 358, 118.168 317.879, 117.582 316.352 C 117.296 315.608, 116.261 315, 115.281 315 C 114.069 315, 111.752 318.115, 108.027 324.750 C 101.552 336.285, 99.112 339, 95.220 339 C 91.776 339, 88 335.360, 88 332.040 C 88 330.758, 90.958 324.558, 94.573 318.261 C 98.189 311.965, 101.001 306.705, 100.823 306.574 C 98.416 304.790, 87.965 299, 87.152 299 C 86.554 299, 83.510 303.387, 80.388 308.750 C 73.323 320.882, 71.449 323, 67.780 323 C 64.503 323, 60 319.088, 60 316.241 C 60 315.224, 62.925 309.265, 66.500 303 C 70.075 296.735, 73 291.285, 73 290.890 C 73 290.054, 60.652 283, 59.188 283 C 58.645 283, 52.965 292.084, 46.565 303.186 M 417.223 348.557 C 414.280 350.618, 414.404 351.815, 418.250 358.435 C 421.104 363.349, 421.805 363.962, 424 363.472 C 430.181 362.093, 432.314 352.966, 427.365 349.073 C 424.234 346.609, 420.289 346.409, 417.223 348.557 M 245 403.571 C 237.182 407.995, 233.044 415.066, 233.044 424 C 233.044 441.726, 251.216 452.497, 267.136 444.207 C 282.895 436, 283.241 412.914, 267.737 404.022 C 260.643 399.954, 251.705 399.776, 245 403.571 M 250.174 418.314 C 247.234 421.445, 247.241 427.215, 250.189 429.961 C 255.425 434.839, 264 431.051, 264 423.860 C 264 416.760, 255.019 413.157, 250.174 418.314" stroke="none" fill="#323232" fill-rule="evenodd"/><path d="M 248.742 242.224 C 246.448 243.554, 244.228 245.980, 243.046 248.451 C 241.115 252.484, 241.120 252.716, 244.135 307 C 246.770 354.418, 247.393 361.825, 248.934 364 C 251.238 367.254, 255.218 368.665, 258.648 367.443 C 263.314 365.781, 264.749 362.425, 265.378 351.706 C 265.698 346.241, 265.568 342.149, 265.082 342.449 C 264.019 343.106, 261.774 337.649, 258.848 327.291 C 256.785 319.991, 256.621 316.996, 256.244 279.750 C 255.793 235.309, 256.299 237.844, 248.742 242.224 M 270.286 256.500 C 270.294 259.250, 270.488 260.256, 270.718 258.736 C 270.947 257.216, 270.941 254.966, 270.704 253.736 C 270.467 252.506, 270.279 253.750, 270.286 256.500 M 225.232 259 C 225.232 260.925, 225.438 261.712, 225.689 260.750 C 225.941 259.788, 225.941 258.212, 225.689 257.250 C 225.438 256.288, 225.232 257.075, 225.232 259 M 269.286 274.500 C 269.294 277.250, 269.488 278.256, 269.718 276.736 C 269.947 275.216, 269.941 272.966, 269.704 271.736 C 269.467 270.506, 269.279 271.750, 269.286 274.500 M 226.232 277 C 226.232 278.925, 226.438 279.712, 226.689 278.750 C 226.941 277.788, 226.941 276.212, 226.689 275.250 C 226.438 274.288, 226.232 275.075, 226.232 277 M 268.286 292.500 C 268.294 295.250, 268.488 296.256, 268.718 294.736 C 268.947 293.216, 268.941 290.966, 268.704 289.736 C 268.467 288.506, 268.279 289.750, 268.286 292.500 M 227.232 295 C 227.232 296.925, 227.438 297.712, 227.689 296.750 C 227.941 295.788, 227.941 294.212, 227.689 293.250 C 227.438 292.288, 227.232 293.075, 227.232 295 M 267.286 310.500 C 267.294 313.250, 267.488 314.256, 267.718 312.736 C 267.947 311.216, 267.941 308.966, 267.704 307.736 C 267.467 306.506, 267.279 307.750, 267.286 310.500 M 228.232 313 C 228.232 314.925, 228.438 315.712, 228.689 314.750 C 228.941 313.788, 228.941 312.212, 228.689 311.250 C 228.438 310.288, 228.232 311.075, 228.232 313 M 266.286 328.500 C 266.294 331.250, 266.488 332.256, 266.718 330.736 C 266.947 329.216, 266.941 326.966, 266.704 325.736 C 266.467 324.506, 266.279 325.750, 266.286 328.500 M 229.232 331 C 229.232 332.925, 229.438 333.712, 229.689 332.750 C 229.941 331.788, 229.941 330.212, 229.689 329.250 C 229.438 328.288, 229.232 329.075, 229.232 331 M 230.232 349 C 230.232 350.925, 230.438 351.712, 230.689 350.750 C 230.941 349.788, 230.941 348.212, 230.689 347.250 C 230.438 346.288, 230.232 347.075, 230.232 349 M 250.455 418.455 C 245.494 423.415, 249.009 432, 256 432 C 257.948 432, 259.998 431.093, 261.545 429.545 C 263.093 427.998, 264 425.948, 264 424 C 264 422.052, 263.093 420.002, 261.545 418.455 C 259.998 416.907, 257.948 416, 256 416 C 254.052 416, 252.002 416.907, 250.455 418.455" stroke="none" fill="#cc5144" fill-rule="evenodd"/><path d="M 256.243 279.711 C 256.621 316.997, 256.785 319.990, 258.848 327.291 C 261.755 337.582, 264.102 343.320, 264.991 342.315 C 265.389 341.867, 266.770 321.318, 268.061 296.650 C 270.396 252.048, 270.398 251.781, 268.454 248.231 C 266.236 244.180, 262.807 241.491, 258.670 240.559 L 255.840 239.922 256.243 279.711 M 417.144 349.750 L 415.067 351.500 418.683 357.250 C 420.671 360.413, 422.856 363, 423.538 363 C 426.481 363, 429.400 359.265, 429.400 355.500 C 429.400 349.029, 422.078 345.593, 417.144 349.750" stroke="none" fill="#f8664f" fill-rule="evenodd"/><path d="M 256.243 279.711 C 256.621 316.997, 256.785 319.990, 258.848 327.291 C 261.755 337.582, 264.102 343.320, 264.991 342.315 C 265.389 341.867, 266.770 321.318, 268.061 296.650 C 270.396 252.048, 270.398 251.781, 268.454 248.231 C 266.236 244.180, 262.807 241.491, 258.670 240.559 L 255.840 239.922 256.243 279.711 M 417.144 349.750 L 415.067 351.500 418.683 357.250 C 420.671 360.413, 422.856 363, 423.538 363 C 426.481 363, 429.400 359.265, 429.400 355.500 C 429.400 349.029, 422.078 345.593, 417.144 349.750" stroke="none" fill="#f8664f" fill-rule="evenodd"/><path d="M 248.742 242.224 C 246.448 243.554, 244.228 245.980, 243.046 248.451 C 241.115 252.484, 241.120 252.716, 244.135 307 C 246.770 354.418, 247.393 361.825, 248.934 364 C 251.238 367.254, 255.218 368.665, 258.648 367.443 C 263.314 365.781, 264.749 362.425, 265.378 351.706 C 265.698 346.241, 265.568 342.149, 265.082 342.449 C 264.019 343.106, 261.774 337.649, 258.848 327.291 C 256.785 319.991, 256.621 316.996, 256.244 279.750 C 255.793 235.309, 256.299 237.844, 248.742 242.224 M 270.286 256.500 C 270.294 259.250, 270.488 260.256, 270.718 258.736 C 270.947 257.216, 270.941 254.966, 270.704 253.736 C 270.467 252.506, 270.279 253.750, 270.286 256.500 M 225.232 259 C 225.232 260.925, 225.438 261.712, 225.689 260.750 C 225.941 259.788, 225.941 258.212, 225.689 257.250 C 225.438 256.288, 225.232 257.075, 225.232 259 M 269.286 274.500 C 269.294 277.250, 269.488 278.256, 269.718 276.736 C 269.947 275.216, 269.941 272.966, 269.704 271.736 C 269.467 270.506, 269.279 271.750, 269.286 274.500 M 226.232 277 C 226.232 278.925, 226.438 279.712, 226.689 278.750 C 226.941 277.788, 226.941 276.212, 226.689 275.250 C 226.438 274.288, 226.232 275.075, 226.232 277 M 268.286 292.500 C 268.294 295.250, 268.488 296.256, 268.718 294.736 C 268.947 293.216, 268.941 290.966, 268.704 289.736 C 268.467 288.506, 268.279 289.750, 268.286 292.500 M 227.232 295 C 227.232 296.925, 227.438 297.712, 227.689 296.750 C 227.941 295.788, 227.941 294.212, 227.689 293.250 C 227.438 292.288, 227.232 293.075, 227.232 295 M 267.286 310.500 C 267.294 313.250, 267.488 314.256, 267.718 312.736 C 267.947 311.216, 267.941 308.966, 267.704 307.736 C 267.467 306.506, 267.279 307.750, 267.286 310.500 M 228.232 313 C 228.232 314.925, 228.438 315.712, 228.689 314.750 C 228.941 313.788, 228.941 312.212, 228.689 311.250 C 228.438 310.288, 228.232 311.075, 228.232 313 M 266.286 328.500 C 266.294 331.250, 266.488 332.256, 266.718 330.736 C 266.947 329.216, 266.941 326.966, 266.704 325.736 C 266.467 324.506, 266.279 325.750, 266.286 328.500 M 229.232 331 C 229.232 332.925, 229.438 333.712, 229.689 332.750 C 229.941 331.788, 229.941 330.212, 229.689 329.250 C 229.438 328.288, 229.232 329.075, 229.232 331 M 230.232 349 C 230.232 350.925, 230.438 351.712, 230.689 350.750 C 230.941 349.788, 230.941 348.212, 230.689 347.250 C 230.438 346.288, 230.232 347.075, 230.232 349 M 250.455 418.455 C 245.494 423.415, 249.009 432, 256 432 C 257.948 432, 259.998 431.093, 261.545 429.545 C 263.093 427.998, 264 425.948, 264 424 C 264 422.052, 263.093 420.002, 261.545 418.455 C 259.998 416.907, 257.948 416, 256 416 C 254.052 416, 252.002 416.907, 250.455 418.455" stroke="none" fill="#cc5144" fill-rule="evenodd"/><path d="M 294.700 81.233 L 268.038 127.418 272.993 129.773 C 281.346 133.743, 286.545 139.445, 296.450 155.501 C 304.980 169.326, 305.921 170.484, 308.474 170.295 C 309.997 170.182, 311.442 169.892, 311.684 169.649 C 311.926 169.407, 310.072 165.121, 307.562 160.124 C 305.053 155.128, 303 150.006, 303 148.742 C 303 145.887, 305.627 142, 307.557 142 C 308.660 142, 308.557 141.557, 307.120 140.120 C 301.706 134.706, 299.673 116.237, 303.422 106.517 C 304.479 103.776, 312.729 88.740, 321.755 73.103 C 336.681 47.246, 338.002 44.574, 336.353 43.586 C 335.355 42.989, 331.575 40.823, 327.951 38.774 L 321.362 35.048 294.700 81.233 M 350.975 55.796 L 351.458 60.500 351.797 56.618 C 351.984 54.483, 351.767 52.367, 351.315 51.915 C 350.863 51.463, 350.710 53.210, 350.975 55.796 M 186.385 86.940 C 179.962 95.211, 174.317 97.578, 167.315 94.939 C 163.620 93.545, 157.899 87.982, 158.731 86.592 C 159.090 85.991, 158.510 86.160, 157.442 86.967 C 156.374 87.774, 155.298 88.576, 155.051 88.749 C 154.805 88.922, 158.826 93.305, 163.988 98.488 L 173.373 107.912 177.222 102.022 C 179.339 98.782, 184.425 92.999, 188.526 89.169 C 194.139 83.927, 195.593 82.058, 194.409 81.603 C 191.626 80.535, 191.073 80.903, 186.385 86.940 M 122.985 96.743 L 114.500 105.500 123.016 97.255 L 131.532 89.010 148.790 106.289 L 166.048 123.568 155.218 134.240 C 142.050 147.216, 137.006 149.976, 126.428 149.990 C 115.321 150.006, 110.966 147.998, 100.757 138.157 C 94.712 132.329, 92.108 129.146, 92.507 128.071 C 92.827 127.207, 90.260 129.314, 86.801 132.754 L 80.513 139.007 103.254 161.749 L 125.995 184.490 150.998 159.502 C 164.749 145.759, 176 134.058, 176 133.499 C 176 132.940, 165.981 122.471, 153.735 110.235 L 131.470 87.986 122.985 96.743 M 384.453 128.250 L 380.500 132.500 384.750 128.547 C 387.087 126.373, 389 124.460, 389 124.297 C 389 123.540, 388.129 124.298, 384.453 128.250 M 369.055 157.973 C 364.122 186.095, 380.089 212.187, 408 221.613 C 411.976 222.956, 416.409 223.471, 424 223.471 C 431.591 223.471, 436.024 222.956, 440 221.613 C 457.415 215.732, 470.072 203.991, 475.975 188.245 C 479.369 179.189, 479.316 179.088, 473.814 184.172 C 467.381 190.117, 454.647 196.545, 445.436 198.496 C 424.265 202.981, 402.449 196.457, 387.041 181.033 C 379.092 173.076, 372.356 161.822, 371.031 154.286 C 370.397 150.677, 370.305 150.849, 369.055 157.973 M 75.230 168.267 L 70.010 173.553 80.369 183.776 C 86.067 189.399, 91.144 194, 91.652 194 C 92.160 194, 94.692 191.851, 97.279 189.224 L 101.983 184.449 91.216 173.715 L 80.449 162.982 75.230 168.267 M 41.216 178.281 C 38.347 181.186, 36 184.003, 36 184.540 C 36 185.847, 79.233 229, 80.542 229 C 81.107 229, 83.930 226.608, 86.817 223.685 L 92.066 218.370 90 216.500 C 88.412 215.063, 86.265 214.608, 80.717 214.530 C 75.806 214.462, 72.382 213.842, 70 212.590 C 68.075 211.579, 60.085 204.412, 52.245 196.665 L 37.990 182.579 42.707 177.790 C 45.302 175.155, 47.201 173, 46.928 173 C 46.655 173, 44.085 175.377, 41.216 178.281 M 351.614 218.456 L 340.727 228.810 348.979 242.405 C 353.517 249.882, 357.526 256, 357.886 256 C 358.519 256, 370.775 243.624, 380.012 233.657 L 384.500 228.815 382 227.171 C 377.787 224.402, 368.057 214.828, 365.888 211.319 C 364.760 209.493, 363.536 208.023, 363.168 208.051 C 362.801 208.078, 357.601 212.761, 351.614 218.456 M 286.232 253 C 286.232 254.925, 286.438 255.713, 286.689 254.750 C 286.941 253.787, 286.941 252.213, 286.689 251.250 C 286.438 250.287, 286.232 251.075, 286.232 253 M 281.232 349 C 281.232 350.925, 281.438 351.712, 281.689 350.750 C 281.941 349.788, 281.941 348.212, 281.689 347.250 C 281.438 346.288, 281.232 347.075, 281.232 349" stroke="none" fill="#93999a" fill-rule="evenodd"/><path d="M 294.700 81.233 L 268.038 127.418 272.993 129.773 C 281.346 133.743, 286.545 139.445, 296.450 155.501 C 304.980 169.326, 305.921 170.484, 308.474 170.295 C 309.997 170.182, 311.442 169.892, 311.684 169.649 C 311.926 169.407, 310.072 165.121, 307.562 160.124 C 305.053 155.128, 303 150.006, 303 148.742 C 303 145.887, 305.627 142, 307.557 142 C 308.660 142, 308.557 141.557, 307.120 140.120 C 301.706 134.706, 299.673 116.237, 303.422 106.517 C 304.479 103.776, 312.729 88.740, 321.755 73.103 C 336.681 47.246, 338.002 44.574, 336.353 43.586 C 335.355 42.989, 331.575 40.823, 327.951 38.774 L 321.362 35.048 294.700 81.233 M 350.975 55.796 L 351.458 60.500 351.797 56.618 C 351.984 54.483, 351.767 52.367, 351.315 51.915 C 350.863 51.463, 350.710 53.210, 350.975 55.796 M 186.385 86.940 C 179.962 95.211, 174.317 97.578, 167.315 94.939 C 163.620 93.545, 157.899 87.982, 158.731 86.592 C 159.090 85.991, 158.510 86.160, 157.442 86.967 C 156.374 87.774, 155.298 88.576, 155.051 88.749 C 154.805 88.922, 158.826 93.305, 163.988 98.488 L 173.373 107.912 177.222 102.022 C 179.339 98.782, 184.425 92.999, 188.526 89.169 C 194.139 83.927, 195.593 82.058, 194.409 81.603 C 191.626 80.535, 191.073 80.903, 186.385 86.940 M 122.985 96.743 L 114.500 105.500 123.016 97.255 L 131.532 89.010 148.790 106.289 L 166.048 123.568 155.218 134.240 C 142.050 147.216, 137.006 149.976, 126.428 149.990 C 115.321 150.006, 110.966 147.998, 100.757 138.157 C 94.712 132.329, 92.108 129.146, 92.507 128.071 C 92.827 127.207, 90.260 129.314, 86.801 132.754 L 80.513 139.007 103.254 161.749 L 125.995 184.490 150.998 159.502 C 164.749 145.759, 176 134.058, 176 133.499 C 176 132.940, 165.981 122.471, 153.735 110.235 L 131.470 87.986 122.985 96.743 M 384.453 128.250 L 380.500 132.500 384.750 128.547 C 387.087 126.373, 389 124.460, 389 124.297 C 389 123.540, 388.129 124.298, 384.453 128.250 M 369.055 157.973 C 364.122 186.095, 380.089 212.187, 408 221.613 C 411.976 222.956, 416.409 223.471, 424 223.471 C 431.591 223.471, 436.024 222.956, 440 221.613 C 457.415 215.732, 470.072 203.991, 475.975 188.245 C 479.369 179.189, 479.316 179.088, 473.814 184.172 C 467.381 190.117, 454.647 196.545, 445.436 198.496 C 424.265 202.981, 402.449 196.457, 387.041 181.033 C 379.092 173.076, 372.356 161.822, 371.031 154.286 C 370.397 150.677, 370.305 150.849, 369.055 157.973 M 75.230 168.267 L 70.010 173.553 80.369 183.776 C 86.067 189.399, 91.144 194, 91.652 194 C 92.160 194, 94.692 191.851, 97.279 189.224 L 101.983 184.449 91.216 173.715 L 80.449 162.982 75.230 168.267 M 41.216 178.281 C 38.347 181.186, 36 184.003, 36 184.540 C 36 185.847, 79.233 229, 80.542 229 C 81.107 229, 83.930 226.608, 86.817 223.685 L 92.066 218.370 90 216.500 C 88.412 215.063, 86.265 214.608, 80.717 214.530 C 75.806 214.462, 72.382 213.842, 70 212.590 C 68.075 211.579, 60.085 204.412, 52.245 196.665 L 37.990 182.579 42.707 177.790 C 45.302 175.155, 47.201 173, 46.928 173 C 46.655 173, 44.085 175.377, 41.216 178.281 M 351.614 218.456 L 340.727 228.810 348.979 242.405 C 353.517 249.882, 357.526 256, 357.886 256 C 358.519 256, 370.775 243.624, 380.012 233.657 L 384.500 228.815 382 227.171 C 377.787 224.402, 368.057 214.828, 365.888 211.319 C 364.760 209.493, 363.536 208.023, 363.168 208.051 C 362.801 208.078, 357.601 212.761, 351.614 218.456 M 286.232 253 C 286.232 254.925, 286.438 255.713, 286.689 254.750 C 286.941 253.787, 286.941 252.213, 286.689 251.250 C 286.438 250.287, 286.232 251.075, 286.232 253 M 281.232 349 C 281.232 350.925, 281.438 351.712, 281.689 350.750 C 281.941 349.788, 281.941 348.212, 281.689 347.250 C 281.438 346.288, 281.232 347.075, 281.232 349" stroke="none" fill="#93999a" fill-rule="evenodd"/><path d="M 294.700 81.233 L 268.038 127.418 272.993 129.773 C 281.346 133.743, 286.545 139.445, 296.450 155.501 C 304.980 169.326, 305.921 170.484, 308.474 170.295 C 309.997 170.182, 311.442 169.892, 311.684 169.649 C 311.926 169.407, 310.072 165.121, 307.562 160.124 C 305.053 155.128, 303 150.006, 303 148.742 C 303 145.887, 305.627 142, 307.557 142 C 308.660 142, 308.557 141.557, 307.120 140.120 C 301.706 134.706, 299.673 116.237, 303.422 106.517 C 304.479 103.776, 312.729 88.740, 321.755 73.103 C 336.681 47.246, 338.002 44.574, 336.353 43.586 C 335.355 42.989, 331.575 40.823, 327.951 38.774 L 321.362 35.048 294.700 81.233 M 350.975 55.796 L 351.458 60.500 351.797 56.618 C 351.984 54.483, 351.767 52.367, 351.315 51.915 C 350.863 51.463, 350.710 53.210, 350.975 55.796 M 186.385 86.940 C 179.962 95.211, 174.317 97.578, 167.315 94.939 C 163.620 93.545, 157.899 87.982, 158.731 86.592 C 159.090 85.991, 158.510 86.160, 157.442 86.967 C 156.374 87.774, 155.298 88.576, 155.051 88.749 C 154.805 88.922, 158.826 93.305, 163.988 98.488 L 173.373 107.912 177.222 102.022 C 179.339 98.782, 184.425 92.999, 188.526 89.169 C 194.139 83.927, 195.593 82.058, 194.409 81.603 C 191.626 80.535, 191.073 80.903, 186.385 86.940 M 122.985 96.743 L 114.500 105.500 123.016 97.255 L 131.532 89.010 148.790 106.289 L 166.048 123.568 155.218 134.240 C 142.050 147.216, 137.006 149.976, 126.428 149.990 C 115.321 150.006, 110.966 147.998, 100.757 138.157 C 94.712 132.329, 92.108 129.146, 92.507 128.071 C 92.827 127.207, 90.260 129.314, 86.801 132.754 L 80.513 139.007 103.254 161.749 L 125.995 184.490 150.998 159.502 C 164.749 145.759, 176 134.058, 176 133.499 C 176 132.940, 165.981 122.471, 153.735 110.235 L 131.470 87.986 122.985 96.743 M 384.453 128.250 L 380.500 132.500 384.750 128.547 C 387.087 126.373, 389 124.460, 389 124.297 C 389 123.540, 388.129 124.298, 384.453 128.250 M 369.055 157.973 C 364.122 186.095, 380.089 212.187, 408 221.613 C 411.976 222.956, 416.409 223.471, 424 223.471 C 431.591 223.471, 436.024 222.956, 440 221.613 C 457.415 215.732, 470.072 203.991, 475.975 188.245 C 479.369 179.189, 479.316 179.088, 473.814 184.172 C 467.381 190.117, 454.647 196.545, 445.436 198.496 C 424.265 202.981, 402.449 196.457, 387.041 181.033 C 379.092 173.076, 372.356 161.822, 371.031 154.286 C 370.397 150.677, 370.305 150.849, 369.055 157.973 M 75.230 168.267 L 70.010 173.553 80.369 183.776 C 86.067 189.399, 91.144 194, 91.652 194 C 92.160 194, 94.692 191.851, 97.279 189.224 L 101.983 184.449 91.216 173.715 L 80.449 162.982 75.230 168.267 M 41.216 178.281 C 38.347 181.186, 36 184.003, 36 184.540 C 36 185.847, 79.233 229, 80.542 229 C 81.107 229, 83.930 226.608, 86.817 223.685 L 92.066 218.370 90 216.500 C 88.412 215.063, 86.265 214.608, 80.717 214.530 C 75.806 214.462, 72.382 213.842, 70 212.590 C 68.075 211.579, 60.085 204.412, 52.245 196.665 L 37.990 182.579 42.707 177.790 C 45.302 175.155, 47.201 173, 46.928 173 C 46.655 173, 44.085 175.377, 41.216 178.281 M 351.614 218.456 L 340.727 228.810 348.979 242.405 C 353.517 249.882, 357.526 256, 357.886 256 C 358.519 256, 370.775 243.624, 380.012 233.657 L 384.500 228.815 382 227.171 C 377.787 224.402, 368.057 214.828, 365.888 211.319 C 364.760 209.493, 363.536 208.023, 363.168 208.051 C 362.801 208.078, 357.601 212.761, 351.614 218.456 M 286.232 253 C 286.232 254.925, 286.438 255.713, 286.689 254.750 C 286.941 253.787, 286.941 252.213, 286.689 251.250 C 286.438 250.287, 286.232 251.075, 286.232 253 M 281.232 349 C 281.232 350.925, 281.438 351.712, 281.689 350.750 C 281.941 349.788, 281.941 348.212, 281.689 347.250 C 281.438 346.288, 281.232 347.075, 281.232 349" stroke="none" fill="#93999a" fill-rule="evenodd"/><path d="M 332.675 54.220 C 314.958 84.527, 305.120 102.114, 303.426 106.506 C 300.673 113.645, 300.891 126.525, 303.895 134.231 C 305.124 137.383, 306.526 140.207, 307.010 140.506 C 307.494 140.805, 310.819 140.314, 314.400 139.415 L 320.909 137.780 316.455 128.910 C 309.304 114.672, 310.665 110.888, 324.138 107.548 L 331.777 105.655 329.888 98.840 C 328.850 95.092, 328 90.670, 328 89.013 C 328 85.619, 330.748 82.352, 334.367 81.444 C 337.342 80.697, 342.635 83.274, 343.459 85.871 C 344.041 87.704, 344.274 87.710, 350.748 86.077 C 356.291 84.678, 357.553 83.970, 358.118 81.944 C 359.239 77.931, 359.081 76, 357.635 76 C 356.884 76, 355.100 75.080, 353.669 73.955 C 351.221 72.028, 351.052 71.326, 350.784 61.916 L 350.500 51.923 344.300 48.432 L 338.100 44.941 332.675 54.220 M 172.389 81.488 C 169.028 82.220, 164.364 83.794, 162.026 84.987 L 157.775 87.156 160.637 90.201 C 163.890 93.662, 168.701 96, 172.567 96 C 177.130 96, 181.622 93.073, 186.295 87.056 L 190.818 81.232 187.159 80.627 C 182.117 79.793, 179.472 79.947, 172.389 81.488 M 122.303 98.045 C 113.951 106.178, 112.752 107, 109.253 107 C 107.134 107, 104.856 106.456, 104.192 105.792 C 103.248 104.848, 101.796 105.757, 97.548 109.953 C 92.483 114.955, 92.210 115.462, 93.556 117.383 C 95.428 120.056, 95.380 122.365, 93.372 126.247 L 91.745 129.395 100.641 138.025 C 110.936 148.011, 115.234 150, 126.518 150 C 136.992 150, 142.822 146.763, 155.747 133.772 L 165.994 123.472 148.747 106.281 L 131.500 89.090 122.303 98.045 M 417 112.660 C 411.245 113.551, 405.109 115.502, 399 118.382 C 386.148 124.439, 371 143.272, 371 153.192 C 371 154.979, 372.883 160.226, 375.209 164.921 C 387.800 190.339, 417.320 204.452, 445.436 198.496 C 454.642 196.546, 467.406 190.105, 473.685 184.242 C 478.549 179.700, 478.792 179.221, 479.449 172.866 C 479.826 169.218, 479.823 164.575, 479.443 162.548 L 478.752 158.864 468.521 168.932 C 457.889 179.394, 455.689 180.510, 450.823 177.905 C 449.078 176.971, 448.219 177.357, 444.966 180.533 C 441.181 184.230, 441.165 184.278, 442.697 187.491 C 444.025 190.276, 444.049 191.123, 442.870 193.577 C 441.135 197.186, 437.102 199.494, 433.931 198.694 C 432.594 198.357, 422.837 189.374, 412.250 178.732 C 396.166 162.566, 393 158.908, 393 156.497 C 393 154.081, 396.270 150.327, 413.078 133.446 L 433.156 113.281 429.953 112.641 C 426.640 111.978, 421.349 111.986, 417 112.660 M 42.205 178.291 L 37.993 182.583 52.247 196.667 C 60.086 204.413, 67.955 211.490, 69.733 212.392 C 73.739 214.426, 80.954 215.479, 84.606 214.563 C 87.260 213.897, 86.670 213.188, 67.437 193.936 C 56.482 182.971, 47.271 174, 46.968 174 C 46.664 174, 44.521 175.931, 42.205 178.291" stroke="none" fill="#d0d8da" fill-rule="evenodd"/><path d="M 332.675 54.220 C 314.958 84.527, 305.120 102.114, 303.426 106.506 C 300.673 113.645, 300.891 126.525, 303.895 134.231 C 305.124 137.383, 306.526 140.207, 307.010 140.506 C 307.494 140.805, 310.819 140.314, 314.400 139.415 L 320.909 137.780 316.455 128.910 C 309.304 114.672, 310.665 110.888, 324.138 107.548 L 331.777 105.655 329.888 98.840 C 328.850 95.092, 328 90.670, 328 89.013 C 328 85.619, 330.748 82.352, 334.367 81.444 C 337.342 80.697, 342.635 83.274, 343.459 85.871 C 344.041 87.704, 344.274 87.710, 350.748 86.077 C 356.291 84.678, 357.553 83.970, 358.118 81.944 C 359.239 77.931, 359.081 76, 357.635 76 C 356.884 76, 355.100 75.080, 353.669 73.955 C 351.221 72.028, 351.052 71.326, 350.784 61.916 L 350.500 51.923 344.300 48.432 L 338.100 44.941 332.675 54.220 M 172.389 81.488 C 169.028 82.220, 164.364 83.794, 162.026 84.987 L 157.775 87.156 160.637 90.201 C 163.890 93.662, 168.701 96, 172.567 96 C 177.130 96, 181.622 93.073, 186.295 87.056 L 190.818 81.232 187.159 80.627 C 182.117 79.793, 179.472 79.947, 172.389 81.488 M 122.303 98.045 C 113.951 106.178, 112.752 107, 109.253 107 C 107.134 107, 104.856 106.456, 104.192 105.792 C 103.248 104.848, 101.796 105.757, 97.548 109.953 C 92.483 114.955, 92.210 115.462, 93.556 117.383 C 95.428 120.056, 95.380 122.365, 93.372 126.247 L 91.745 129.395 100.641 138.025 C 110.936 148.011, 115.234 150, 126.518 150 C 136.992 150, 142.822 146.763, 155.747 133.772 L 165.994 123.472 148.747 106.281 L 131.500 89.090 122.303 98.045 M 417 112.660 C 411.245 113.551, 405.109 115.502, 399 118.382 C 386.148 124.439, 371 143.272, 371 153.192 C 371 154.979, 372.883 160.226, 375.209 164.921 C 387.800 190.339, 417.320 204.452, 445.436 198.496 C 454.642 196.546, 467.406 190.105, 473.685 184.242 C 478.549 179.700, 478.792 179.221, 479.449 172.866 C 479.826 169.218, 479.823 164.575, 479.443 162.548 L 478.752 158.864 468.521 168.932 C 457.889 179.394, 455.689 180.510, 450.823 177.905 C 449.078 176.971, 448.219 177.357, 444.966 180.533 C 441.181 184.230, 441.165 184.278, 442.697 187.491 C 444.025 190.276, 444.049 191.123, 442.870 193.577 C 441.135 197.186, 437.102 199.494, 433.931 198.694 C 432.594 198.357, 422.837 189.374, 412.250 178.732 C 396.166 162.566, 393 158.908, 393 156.497 C 393 154.081, 396.270 150.327, 413.078 133.446 L 433.156 113.281 429.953 112.641 C 426.640 111.978, 421.349 111.986, 417 112.660 M 42.205 178.291 L 37.993 182.583 52.247 196.667 C 60.086 204.413, 67.955 211.490, 69.733 212.392 C 73.739 214.426, 80.954 215.479, 84.606 214.563 C 87.260 213.897, 86.670 213.188, 67.437 193.936 C 56.482 182.971, 47.271 174, 46.968 174 C 46.664 174, 44.521 175.931, 42.205 178.291" stroke="none" fill="#d0d8da" fill-rule="evenodd"/><path d="M 313.207 17.750 C 312.098 18.712, 310.089 21.525, 308.741 24 C 307.393 26.475, 304.200 32.025, 301.645 36.333 C 299.090 40.641, 297 44.296, 297 44.455 C 297 44.614, 294.607 48.739, 291.682 53.622 C 288.756 58.505, 284.998 64.975, 283.329 68 C 278.635 76.508, 276.314 80.539, 273.722 84.685 C 272.410 86.783, 269.845 91.200, 268.021 94.500 C 263.468 102.741, 263.260 103.103, 256.116 115.239 C 250.206 125.280, 249.526 126.051, 245.664 127.090 C 234.535 130.087, 226.236 136.908, 219.006 149 C 216.539 153.125, 213.973 157.400, 213.303 158.500 C 212.634 159.600, 211.628 161.512, 211.068 162.750 C 210.508 163.988, 209.692 165, 209.256 165 C 208.820 165, 204.006 160.527, 198.560 155.060 L 188.658 145.121 192.329 141.058 C 197.555 135.273, 197.370 131.740, 191.500 125.211 C 189.025 122.458, 187 119.555, 187 118.758 C 187 116.521, 194.229 105.862, 198.590 101.668 C 202.094 98.298, 217.085 90, 219.668 90 C 223.494 90, 225.904 81, 223.012 77.514 C 221.533 75.733, 209.505 69.431, 204.500 67.816 C 183.889 61.164, 162.104 63.621, 147 74.299 L 143.500 76.774 139.272 72.887 C 135.957 69.839, 134.249 69, 131.358 69 C 127.976 69, 126.608 70.053, 114.794 81.742 C 107.712 88.750, 101.662 95.500, 101.350 96.742 C 100.371 100.643, 101.792 103.674, 105.405 105.388 C 110.178 107.653, 112.006 106.681, 121.978 96.584 C 126.641 91.863, 130.912 88, 131.470 88 C 132.796 88, 177 132.173, 177 133.499 C 177 134.058, 165.524 145.984, 151.498 160.002 L 125.995 185.490 102.762 162.256 L 79.528 139.022 86.764 131.738 C 94.206 124.246, 95.153 122.059, 92.850 117.684 C 91.273 114.687, 90.061 114.033, 86.050 114.015 C 82.989 114.002, 81.384 115.216, 71.800 124.800 C 58.972 137.628, 58.449 139.277, 64.963 146.344 L 68.925 150.642 63.473 156.027 L 58.020 161.412 54.760 158.267 C 50.275 153.941, 47.139 152.892, 43.457 154.487 C 41.831 155.192, 34.987 161.373, 28.250 168.223 C 17.303 179.354, 16 181.049, 16 184.168 C 16 187.414, 18.137 189.790, 46.502 218.079 C 73.696 245.201, 77.385 248.534, 80.528 248.812 C 83.832 249.104, 84.845 248.351, 96.656 236.812 C 109.124 224.632, 112.576 219.813, 111.347 216.306 C 110.999 215.313, 109.109 212.810, 107.148 210.743 L 103.581 206.987 108.969 201.531 L 114.358 196.075 118.656 200.037 C 125.018 205.901, 127.330 205.540, 136.042 197.322 L 143.121 190.644 158.935 206.435 L 174.749 222.226 165.875 237.101 C 160.994 245.282, 157 252.635, 157 253.441 C 157 257.488, 159.295 259.922, 163.741 260.588 C 167.617 261.170, 168.492 260.947, 170.451 258.878 C 171.690 257.570, 186.783 233.100, 203.991 204.500 C 221.199 175.900, 236.678 150.981, 238.389 149.124 C 247.416 139.328, 264.576 139.328, 273.615 149.124 C 276.263 151.994, 448.398 435.981, 453.563 446 C 455.998 450.724, 456.002 461.261, 453.571 466 C 452.584 467.925, 450.364 471.001, 448.638 472.835 C 442.263 479.611, 443.312 479.449, 402.276 480 C 366.711 480.478, 364.966 480.589, 363.124 482.500 C 360.016 485.723, 359.567 490.179, 362.034 493.316 L 364.145 496 401.394 496 C 433.497 496, 439.325 495.770, 443.572 494.336 C 469.046 485.734, 479.340 456.273, 464.853 433.430 C 463.158 430.757, 458.139 422.479, 453.700 415.035 C 449.262 407.591, 444.741 400.495, 443.655 399.266 C 442.570 398.037, 439.065 392.643, 435.868 387.279 L 430.056 377.527 432.778 376.145 C 442.851 371.030, 447.784 359.650, 444.631 348.804 C 440.222 333.638, 421.819 327.126, 408.855 336.146 L 406.211 337.986 401.669 330.743 C 399.171 326.759, 397.436 323.197, 397.813 322.827 C 399.222 321.446, 428.608 304.709, 431.281 303.765 C 437.348 301.622, 438.470 302.975, 456.557 334.246 C 465.821 350.263, 473.587 364.637, 473.814 366.186 C 474.441 370.460, 471.789 373.491, 462.974 378.575 C 458.570 381.116, 454.483 384.098, 453.892 385.203 C 451.394 389.870, 455.371 397, 460.473 397 C 463.461 397, 478.873 388.064, 483.078 383.893 C 489.041 377.978, 491.508 367.699, 488.836 359.899 C 488.195 358.030, 482.719 347.950, 476.666 337.500 C 470.613 327.050, 463.235 314.232, 460.270 309.015 C 457.305 303.799, 453.821 298.143, 452.528 296.448 L 450.176 293.364 470.838 281.529 C 482.202 275.019, 492.512 268.784, 493.750 267.672 C 497.227 264.549, 496.681 260.019, 491.822 251.675 C 485.929 241.555, 484.354 240, 480 240 C 472.748 240, 469.693 247.530, 474.070 254.614 C 475.209 256.456, 475.889 258.371, 475.581 258.869 C 475.273 259.367, 471.529 261.772, 467.261 264.214 C 462.992 266.656, 449.150 274.637, 436.500 281.950 C 423.850 289.263, 411.700 296.275, 409.500 297.531 C 407.300 298.787, 401.947 301.848, 397.604 304.331 L 389.707 308.847 387.354 305.379 C 386.059 303.472, 385 301.711, 385 301.466 C 385 301.221, 381.589 295.524, 377.420 288.806 C 373.251 282.088, 369.156 275.268, 368.319 273.650 L 366.798 270.709 383.728 253.779 L 400.659 236.849 408.555 238.480 C 447.584 246.541, 484.405 223.414, 494.199 184.686 C 497.947 169.864, 494.965 144.016, 488.726 137.250 C 487.316 135.720, 485.503 135, 483.064 135 C 479.761 135, 478.193 136.287, 463.239 151.261 C 449.459 165.060, 447.002 167.975, 447.015 170.511 C 447.033 174.059, 447.757 175.310, 450.684 176.850 C 455.734 179.508, 457.828 178.455, 468.633 167.822 C 474.322 162.224, 479.233 157.900, 479.547 158.214 C 480.821 159.488, 479.988 177.721, 478.415 183 C 472.651 202.335, 457.211 217.584, 438.448 222.472 C 430.926 224.431, 417.074 224.431, 409.552 222.472 C 390.529 217.517, 374.468 201.410, 369.489 182.297 C 367.565 174.909, 367.584 161.018, 369.528 153.552 C 374.436 134.712, 389.679 119.255, 408.932 113.596 C 414.428 111.981, 434 111.296, 434 112.719 C 434 113.114, 425 122.477, 414 133.524 C 397.265 150.332, 394 154.082, 394 156.496 C 394 158.902, 397.107 162.504, 412.750 178.231 C 423.063 188.598, 432.546 197.345, 433.824 197.668 C 439.471 199.093, 443.994 193.541, 442.031 187.593 C 441.411 185.716, 435.428 178.912, 426.998 170.498 L 412.995 156.522 435.068 134.432 C 456.940 112.543, 457.138 112.307, 456.821 108.453 C 456.393 103.270, 452.623 100.782, 441.089 98.075 C 388.764 85.790, 342.787 130.474, 353.534 183.166 L 355.192 191.297 343.696 202.793 L 332.201 214.289 330.570 211.394 C 329.673 209.802, 328.165 207.286, 327.220 205.803 C 320.811 195.750, 315.962 186.647, 316.668 185.993 C 317.126 185.568, 320.034 184.500, 323.131 183.618 C 328.988 181.949, 332 179.028, 332 175.015 C 332 173.885, 329.947 168.872, 327.438 163.876 C 324.928 158.879, 323.040 154.627, 323.241 154.425 C 323.443 154.224, 326.508 153.342, 330.054 152.464 C 337.152 150.708, 341 147.531, 341 143.424 C 341 142.069, 338.975 136.928, 336.500 132 C 334.025 127.072, 332 122.806, 332 122.520 C 332 122.234, 332.718 122, 333.596 122 C 337.162 122, 346.200 118.701, 348.037 116.730 C 350.612 113.965, 350.519 111.636, 347.346 99.583 C 343.445 84.763, 338.538 79.452, 332.439 83.448 C 328.511 86.022, 328.090 88.553, 330.211 96.831 C 331.257 100.918, 331.899 104.820, 331.637 105.503 C 331.375 106.186, 327.910 107.542, 323.938 108.515 C 311.485 111.567, 310.428 114.919, 317.485 128.970 C 319.952 133.882, 321.639 138.084, 321.235 138.308 C 320.831 138.532, 317.475 139.518, 313.777 140.499 C 302.104 143.595, 301.310 146.221, 307.943 159.785 L 312.905 169.932 309.259 170.939 C 307.253 171.493, 305.547 171.845, 305.466 171.723 C 305.386 171.600, 301.556 165.200, 296.956 157.500 C 286.973 140.791, 281.900 135.061, 273.374 130.864 L 267.039 127.745 269.501 123.622 C 270.855 121.355, 282.884 100.504, 296.232 77.288 C 309.579 54.071, 321.016 35.058, 321.646 35.038 C 322.277 35.017, 329.252 38.728, 337.146 43.285 L 351.500 51.570 351.534 60.535 C 351.573 70.868, 352.601 73.383, 357.437 74.979 C 360.287 75.920, 361.321 75.836, 363.361 74.499 C 366.817 72.235, 367.114 71.065, 367.738 57.240 C 368.391 42.777, 368.583 43.147, 357.044 36.620 C 352.895 34.273, 343.147 28.673, 335.383 24.176 C 320.554 15.588, 316.911 14.533, 313.207 17.750 M 168.423 81.358 C 166.181 82.089, 162.020 83.953, 159.177 85.500 L 154.009 88.313 163.254 97.907 C 168.339 103.183, 172.982 107.630, 173.572 107.789 C 174.161 107.948, 175.192 106.874, 175.862 105.403 C 178.036 100.631, 186.130 91.143, 191.676 86.864 C 195.578 83.854, 196.785 82.385, 196 81.600 C 194.346 79.946, 173.322 79.762, 168.423 81.358 M 164.994 167.506 L 153.520 179.012 168.639 194.130 L 183.757 209.249 192.549 194.560 L 201.341 179.872 189.436 167.936 C 182.888 161.371, 177.292 156, 176.999 156 C 176.707 156, 171.304 161.178, 164.994 167.506 M 74.495 167.005 L 68.537 173.026 80.266 184.755 L 91.995 196.485 98 190.480 L 104.006 184.474 92.230 172.729 L 80.454 160.984 74.495 167.005 M 39.984 178.516 L 34.537 184.032 57.753 207.247 L 80.968 230.463 86.484 225.016 C 89.518 222.020, 92 219.099, 92 218.526 C 92 217.175, 47.809 173, 46.458 173 C 45.893 173, 42.980 175.482, 39.984 178.516 M 351.241 217.258 L 340.015 228.516 348.093 242.008 C 352.535 249.429, 356.590 255.936, 357.103 256.468 C 357.694 257.081, 363.167 252.317, 372.018 243.482 C 379.708 235.807, 386 229.227, 386 228.862 C 386 228.496, 384.579 227.297, 382.842 226.197 C 378.581 223.499, 368.349 213.300, 365.855 209.265 C 364.745 207.469, 363.529 206, 363.152 206 C 362.776 206, 357.416 211.066, 351.241 217.258 M 246.764 225.938 C 238.539 228.588, 229.950 237.310, 227.307 245.695 C 225.657 250.928, 225.711 253.267, 228.738 307.991 C 231.662 360.859, 232.035 365.153, 234.054 369.175 C 238.663 378.354, 246.038 383, 256 383 C 266.267 383, 273.884 378.038, 278.040 368.642 C 279.994 364.225, 280.444 358.961, 283.258 307.654 C 286.184 254.313, 286.255 251.220, 284.688 245.913 C 282.737 239.305, 276.918 232.208, 270.243 228.297 C 266.499 226.102, 264.239 225.574, 257.592 225.341 C 253.141 225.184, 248.269 225.453, 246.764 225.938 M 249.418 240.915 C 246.633 242.114, 242.152 247.548, 241.366 250.679 C 240.781 253.009, 245.271 343.975, 246.634 357.413 C 247.403 364.986, 250.069 368, 256 368 C 261.931 368, 264.597 364.986, 265.366 357.413 C 266.770 343.567, 271.210 252.973, 270.603 250.553 C 270.237 249.095, 268.442 246.270, 266.614 244.275 C 263.616 241.005, 262.711 240.618, 257.395 240.334 C 254.153 240.160, 250.563 240.422, 249.418 240.915 M 51.071 265.750 C 49.888 266.712, 41.516 280.325, 32.467 296 C 15.805 324.863, 14.317 328.409, 17.250 332.258 C 17.938 333.161, 23.900 337.013, 30.500 340.820 C 37.100 344.626, 51.725 353.054, 63 359.549 C 74.275 366.044, 83.684 371.499, 83.909 371.671 C 84.134 371.844, 75.273 386.972, 64.217 405.289 C 53.161 423.606, 43.347 440.821, 42.409 443.546 C 39.923 450.762, 40.139 463.017, 42.874 470 C 47.455 481.694, 56.256 490.156, 67.771 493.940 C 73.976 495.978, 75.442 496, 206.847 496 L 339.651 496 341.892 493.614 C 343.705 491.685, 344.006 490.550, 343.468 487.680 C 343.102 485.728, 341.899 483.314, 340.796 482.315 C 338.886 480.586, 332.480 480.476, 205.645 480 C 58.839 479.449, 70.256 479.983, 63.629 473.356 C 56.372 466.099, 54.239 453.939, 58.726 445.410 C 59.909 443.161, 82.280 405.900, 108.439 362.607 C 142.110 306.882, 156 283.048, 156 280.998 C 156 277.282, 152.087 273, 148.691 273 C 144.770 273, 141.872 276.330, 133.738 290.182 L 126.290 302.863 123.553 301.443 C 122.048 300.662, 117.145 297.823, 112.658 295.134 C 84.824 278.454, 58.533 264, 56.025 264 C 54.483 264, 52.254 264.788, 51.071 265.750 M 46.565 303.186 C 40.165 314.289, 35.130 323.895, 35.375 324.534 C 35.846 325.763, 91.277 358, 92.919 358 C 94.409 358, 118.168 317.879, 117.582 316.352 C 117.296 315.608, 116.261 315, 115.281 315 C 114.069 315, 111.752 318.115, 108.027 324.750 C 101.552 336.285, 99.112 339, 95.220 339 C 91.776 339, 88 335.360, 88 332.040 C 88 330.758, 90.958 324.558, 94.573 318.261 C 98.189 311.965, 101.001 306.705, 100.823 306.574 C 98.416 304.790, 87.965 299, 87.152 299 C 86.554 299, 83.510 303.387, 80.388 308.750 C 73.323 320.882, 71.449 323, 67.780 323 C 64.503 323, 60 319.088, 60 316.241 C 60 315.224, 62.925 309.265, 66.500 303 C 70.075 296.735, 73 291.285, 73 290.890 C 73 290.054, 60.652 283, 59.188 283 C 58.645 283, 52.965 292.084, 46.565 303.186 M 417.223 348.557 C 414.280 350.618, 414.404 351.815, 418.250 358.435 C 421.104 363.349, 421.805 363.962, 424 363.472 C 430.181 362.093, 432.314 352.966, 427.365 349.073 C 424.234 346.609, 420.289 346.409, 417.223 348.557 M 245 403.571 C 237.182 407.995, 233.044 415.066, 233.044 424 C 233.044 441.726, 251.216 452.497, 267.136 444.207 C 282.895 436, 283.241 412.914, 267.737 404.022 C 260.643 399.954, 251.705 399.776, 245 403.571 M 250.174 418.314 C 247.234 421.445, 247.241 427.215, 250.189 429.961 C 255.425 434.839, 264 431.051, 264 423.860 C 264 416.760, 255.019 413.157, 250.174 418.314" stroke="none" fill="#323232" fill-rule="evenodd"/><path d="M 165.230 167.270 L 154.003 178.528 168.874 193.374 L 183.745 208.220 191.872 194.712 C 196.343 187.283, 200 180.778, 200 180.257 C 200 179.736, 199.110 178.504, 198.021 177.519 C 196.102 175.782, 195.922 175.838, 192.018 179.364 C 186.451 184.394, 181.272 184.472, 176.400 179.600 C 171.345 174.545, 171.797 169.196, 177.826 162.732 C 180.398 159.975, 180.401 159.956, 178.432 157.988 C 176.464 156.019, 176.411 156.056, 165.230 167.270 M 74.462 168.250 L 69.500 173.500 74.750 168.538 C 77.638 165.808, 80 163.446, 80 163.288 C 80 162.541, 79.074 163.372, 74.462 168.250 M 90.982 173.250 C 100.718 183.235, 102 184.454, 102 183.732 C 102 183.585, 97.162 178.747, 91.250 172.982 L 80.500 162.500 90.982 173.250 M 96.324 190.022 C 93.478 192.760, 91.470 195, 91.862 195 C 92.254 195, 94.791 192.750, 97.500 190 C 103.859 183.544, 103.043 183.559, 96.324 190.022 M 355 214.500 C 350.903 218.625, 347.775 222, 348.050 222 C 348.325 222, 351.903 218.625, 356 214.500 C 360.097 210.375, 363.225 207, 362.950 207 C 362.675 207, 359.097 210.375, 355 214.500 M 380 233.500 C 377.571 235.975, 375.809 238, 376.084 238 C 376.359 238, 378.571 235.975, 381 233.500 C 383.429 231.025, 385.191 229, 384.916 229 C 384.641 229, 382.429 231.025, 380 233.500" stroke="none" fill="#4891d3" fill-rule="evenodd"/><path d="" stroke="none" fill="#000000" fill-rule="evenodd"/><path d="M 177.829 162.729 C 171.797 169.196, 171.344 174.544, 176.400 179.600 C 179.171 182.371, 180.565 183, 183.939 183 C 187.343 183, 188.788 182.335, 192.079 179.250 L 196.081 175.500 188.248 167.729 L 180.414 159.958 177.829 162.729 M 55.139 289.814 C 44.924 307.439, 36 323.397, 36 324.036 C 36 324.792, 91.456 357, 92.759 357 C 93.643 357, 116.500 319.100, 116.500 317.633 C 116.500 317.101, 115.990 316.497, 115.368 316.289 C 114.745 316.082, 111.473 320.638, 108.097 326.414 C 104.721 332.190, 100.968 337.610, 99.757 338.458 C 95.602 341.368, 90.676 340.033, 88.163 335.316 C 86.224 331.675, 86.772 329.932, 93.439 318.536 C 96.967 312.506, 99.646 307.236, 99.391 306.824 C 99.137 306.413, 96.158 304.514, 92.771 302.605 L 86.613 299.135 80.261 310.318 C 76.768 316.468, 73.169 322.063, 72.263 322.750 C 69.802 324.620, 65.601 324.261, 62.635 321.927 C 58.322 318.535, 59.028 314.409, 66 302.258 C 69.300 296.507, 71.996 291.508, 71.991 291.151 C 71.986 290.793, 69.064 288.841, 65.498 286.814 L 59.014 283.128 55.139 289.814" stroke="none" fill="#57b7eb" fill-rule="evenodd"/><path d="" stroke="none" fill="#000000" fill-rule="evenodd"/><path d="M 121.479 97.250 L 112.500 106.500 121.750 97.521 C 126.838 92.582, 131 88.420, 131 88.271 C 131 87.545, 129.819 88.659, 121.479 97.250 M 153.750 110.008 C 165.988 122.388, 176 132.966, 176 133.516 C 176 134.065, 164.749 145.759, 150.998 159.502 L 125.995 184.490 103.263 161.758 L 80.532 139.026 87.006 132.263 L 93.480 125.500 86.496 132.253 L 79.512 139.007 102.754 162.248 L 125.995 185.490 151.498 160.002 C 165.524 145.984, 177 134.058, 177 133.499 C 177 132.940, 166.762 122.362, 154.250 109.992 L 131.500 87.500 153.750 110.008 M 414.513 132 L 395.526 151.500 414.969 132.290 C 425.664 121.725, 434.208 112.950, 433.957 112.790 C 433.706 112.631, 424.956 121.275, 414.513 132 M 268.032 125.939 C 267.004 127.861, 268.356 129.977, 269.733 128.600 C 270.063 128.270, 269.793 128, 269.131 128 C 268.240 128, 268.206 127.484, 269 126 C 269.589 124.900, 269.845 124, 269.570 124 C 269.295 124, 268.603 124.873, 268.032 125.939 M 283.500 138 C 285.648 140.200, 287.631 142, 287.906 142 C 288.181 142, 286.648 140.200, 284.500 138 C 282.352 135.800, 280.369 134, 280.094 134 C 279.819 134, 281.352 135.800, 283.500 138 M 188.520 168 C 195.109 174.875, 200.705 180.370, 200.956 180.211 C 201.206 180.052, 195.815 174.427, 188.976 167.711 L 176.540 155.500 188.520 168 M 468.980 167.750 L 459.500 177.500 469.469 168 C 474.951 162.775, 479.639 158.387, 479.885 158.250 C 480.132 158.113, 479.912 158, 479.397 158 C 478.882 158, 474.194 162.387, 468.980 167.750 M 74.495 167.005 L 68.537 173.026 80.266 184.755 L 91.995 196.485 98 190.480 L 104.006 184.474 92.230 172.729 L 80.454 160.984 74.495 167.005 M 412.500 179 C 422.389 188.900, 430.704 197, 430.979 197 C 431.254 197, 423.389 188.900, 413.500 179 C 403.611 169.100, 395.296 161, 395.021 161 C 394.746 161, 402.611 169.100, 412.500 179 M 74.484 168.016 L 69.543 173.032 80.756 184.244 L 91.968 195.457 96.984 190.516 C 99.743 187.799, 102 185.116, 102 184.555 C 102 183.199, 81.834 163, 80.480 163 C 79.900 163, 77.201 165.257, 74.484 168.016 M 40.024 178.475 C 37.050 181.487, 34.816 184.091, 35.059 184.262 C 35.301 184.433, 37.934 181.969, 40.909 178.787 C 47.764 171.452, 47.168 171.242, 40.024 178.475 M 69 195.500 C 81.366 207.875, 91.708 218, 91.983 218 C 92.258 218, 82.366 207.875, 70 195.500 C 57.634 183.125, 47.292 173, 47.017 173 C 46.742 173, 56.634 183.125, 69 195.500 M 168.433 193.696 C 181.448 206.939, 185 209.850, 185 207.274 C 185 206.940, 184.684 206.983, 184.298 207.369 C 183.912 207.755, 176.824 201.418, 168.548 193.286 L 153.500 178.500 168.433 193.696 M 48.500 221 C 62.792 235.300, 74.711 247, 74.986 247 C 75.261 247, 63.792 235.300, 49.500 221 C 35.208 206.700, 23.289 195, 23.014 195 C 22.739 195, 34.208 206.700, 48.500 221 M 350.984 217.750 L 339.500 229.500 351.064 218.201 L 362.629 206.903 367.431 213.016 C 370.073 216.378, 375.120 221.442, 378.649 224.269 L 385.063 229.410 371.784 242.717 C 362.913 251.606, 358.005 255.834, 357.002 255.453 C 355.787 254.991, 355.743 255.126, 356.768 256.159 C 357.795 257.194, 360.696 254.782, 372.018 243.482 C 379.708 235.807, 386 229.227, 386 228.862 C 386 228.496, 384.579 227.297, 382.842 226.197 C 378.581 223.499, 368.349 213.300, 365.855 209.265 C 364.745 207.469, 363.529 206, 363.152 206 C 362.776 206, 357.300 211.287, 350.984 217.750 M 85.838 224.520 C 82.724 227.534, 80.489 230, 80.872 230 C 81.255 230, 84.013 227.525, 87 224.500 C 94.022 217.390, 93.191 217.404, 85.838 224.520 M 253.750 224.706 C 254.988 224.944, 257.012 224.944, 258.250 224.706 C 259.488 224.467, 258.475 224.272, 256 224.272 C 253.525 224.272, 252.512 224.467, 253.750 224.706 M 233.946 233.750 L 230.500 237.500 234.250 234.054 C 237.740 230.846, 238.460 230, 237.696 230 C 237.529 230, 235.842 231.688, 233.946 233.750 M 277 233.500 C 278.866 235.425, 280.617 237, 280.892 237 C 281.167 237, 279.866 235.425, 278 233.500 C 276.134 231.575, 274.383 230, 274.108 230 C 273.833 230, 275.134 231.575, 277 233.500 M 241.272 263 C 241.272 265.475, 241.467 266.488, 241.706 265.250 C 241.944 264.012, 241.944 261.988, 241.706 260.750 C 241.467 259.512, 241.272 260.525, 241.272 263 M 270.232 264 C 270.232 265.925, 270.438 266.712, 270.689 265.750 C 270.941 264.788, 270.941 263.212, 270.689 262.250 C 270.438 261.288, 270.232 262.075, 270.232 264 M 226.232 271 C 226.232 272.925, 226.438 273.712, 226.689 272.750 C 226.941 271.788, 226.941 270.212, 226.689 269.250 C 226.438 268.288, 226.232 269.075, 226.232 271 M 285.232 271 C 285.232 272.925, 285.438 273.712, 285.689 272.750 C 285.941 271.788, 285.941 270.212, 285.689 269.250 C 285.438 268.288, 285.232 269.075, 285.232 271 M 242.286 280.500 C 242.294 283.250, 242.488 284.256, 242.718 282.736 C 242.947 281.216, 242.941 278.966, 242.704 277.736 C 242.467 276.506, 242.279 277.750, 242.286 280.500 M 269.232 282 C 269.232 283.925, 269.438 284.712, 269.689 283.750 C 269.941 282.788, 269.941 281.212, 269.689 280.250 C 269.438 279.288, 269.232 280.075, 269.232 282 M 227.232 289 C 227.232 290.925, 227.438 291.712, 227.689 290.750 C 227.941 289.788, 227.941 288.212, 227.689 287.250 C 227.438 286.288, 227.232 287.075, 227.232 289 M 284.232 289 C 284.232 290.925, 284.438 291.712, 284.689 290.750 C 284.941 289.788, 284.941 288.212, 284.689 287.250 C 284.438 286.288, 284.232 287.075, 284.232 289 M 243.286 298.500 C 243.294 301.250, 243.488 302.256, 243.718 300.736 C 243.947 299.216, 243.941 296.966, 243.704 295.736 C 243.467 294.506, 243.279 295.750, 243.286 298.500 M 268.232 300 C 268.232 301.925, 268.438 302.712, 268.689 301.750 C 268.941 300.788, 268.941 299.212, 268.689 298.250 C 268.438 297.288, 268.232 298.075, 268.232 300 M 228.232 307 C 228.232 308.925, 228.438 309.712, 228.689 308.750 C 228.941 307.788, 228.941 306.212, 228.689 305.250 C 228.438 304.288, 228.232 305.075, 228.232 307 M 283.232 307 C 283.232 308.925, 283.438 309.712, 283.689 308.750 C 283.941 307.788, 283.941 306.212, 283.689 305.250 C 283.438 304.288, 283.232 305.075, 283.232 307 M 244.286 316.500 C 244.294 319.250, 244.488 320.256, 244.718 318.736 C 244.947 317.216, 244.941 314.966, 244.704 313.736 C 244.467 312.506, 244.279 313.750, 244.286 316.500 M 267.232 318 C 267.232 319.925, 267.438 320.712, 267.689 319.750 C 267.941 318.788, 267.941 317.212, 267.689 316.250 C 267.438 315.288, 267.232 316.075, 267.232 318 M 229.232 325 C 229.232 326.925, 229.438 327.712, 229.689 326.750 C 229.941 325.788, 229.941 324.212, 229.689 323.250 C 229.438 322.288, 229.232 323.075, 229.232 325 M 282.232 325 C 282.232 326.925, 282.438 327.712, 282.689 326.750 C 282.941 325.788, 282.941 324.212, 282.689 323.250 C 282.438 322.288, 282.232 323.075, 282.232 325 M 245.286 334.500 C 245.294 337.250, 245.488 338.256, 245.718 336.736 C 245.947 335.216, 245.941 332.966, 245.704 331.736 C 245.467 330.506, 245.279 331.750, 245.286 334.500 M 266.232 336 C 266.232 337.925, 266.438 338.712, 266.689 337.750 C 266.941 336.788, 266.941 335.212, 266.689 334.250 C 266.438 333.288, 266.232 334.075, 266.232 336 M 230.232 343 C 230.232 344.925, 230.438 345.712, 230.689 344.750 C 230.941 343.788, 230.941 342.212, 230.689 341.250 C 230.438 340.288, 230.232 341.075, 230.232 343 M 281.232 343 C 281.232 344.925, 281.438 345.712, 281.689 344.750 C 281.941 343.788, 281.941 342.212, 281.689 341.250 C 281.438 340.288, 281.232 341.075, 281.232 343 M 246.286 352.500 C 246.294 355.250, 246.488 356.256, 246.718 354.736 C 246.947 353.216, 246.941 350.966, 246.704 349.736 C 246.467 348.506, 246.279 349.750, 246.286 352.500 M 265.286 352.500 C 265.294 355.250, 265.488 356.256, 265.718 354.736 C 265.947 353.216, 265.941 350.966, 265.704 349.736 C 265.467 348.506, 265.279 349.750, 265.286 352.500 M 253.750 383.706 C 254.988 383.944, 257.012 383.944, 258.250 383.706 C 259.488 383.467, 258.475 383.272, 256 383.272 C 253.525 383.272, 252.512 383.467, 253.750 383.706 M 253.750 400.706 C 254.988 400.944, 257.012 400.944, 258.250 400.706 C 259.488 400.467, 258.475 400.272, 256 400.272 C 253.525 400.272, 252.512 400.467, 253.750 400.706 M 232.272 424 C 232.272 426.475, 232.467 427.488, 232.706 426.250 C 232.944 425.012, 232.944 422.988, 232.706 421.750 C 232.467 420.512, 232.272 421.525, 232.272 424 M 279.272 424 C 279.272 426.475, 279.467 427.488, 279.706 426.250 C 279.944 425.012, 279.944 422.988, 279.706 421.750 C 279.467 420.512, 279.272 421.525, 279.272 424 M 253.750 447.706 C 254.988 447.944, 257.012 447.944, 258.250 447.706 C 259.488 447.467, 258.475 447.272, 256 447.272 C 253.525 447.272, 252.512 447.467, 253.750 447.706 M 56.272 456 C 56.272 458.475, 56.467 459.488, 56.706 458.250 C 56.944 457.012, 56.944 454.988, 56.706 453.750 C 56.467 452.512, 56.272 453.525, 56.272 456 M 455.232 456 C 455.232 457.925, 455.438 458.712, 455.689 457.750 C 455.941 456.788, 455.941 455.212, 455.689 454.250 C 455.438 453.288, 455.232 454.075, 455.232 456" stroke="none" fill="#363635" fill-rule="evenodd"/><path d="M 249.994 142.876 C 245.535 144.336, 241.560 146.757, 238.855 149.661 C 237.400 151.222, 221.965 176.125, 204.555 205 C 187.145 233.875, 171.721 258.558, 170.278 259.850 C 168.176 261.734, 166.934 262.085, 164.024 261.620 C 160.438 261.046, 160.346 261.120, 156.637 267.460 L 152.881 273.881 154.940 275.940 C 156.073 277.073, 157 279.264, 157 280.808 C 157 282.744, 141.902 308.597, 108.381 364.058 C 81.640 408.301, 59.140 446.244, 58.381 448.376 C 54.434 459.456, 59.417 471.427, 70.432 477.322 L 74.500 479.500 207.339 480 L 340.177 480.500 342.089 482.861 C 343.140 484.159, 344 485.847, 344 486.611 C 344 487.681, 345.839 488, 352 488 C 358.161 488, 360 487.681, 360 486.611 C 360 485.847, 360.860 484.159, 361.910 482.861 L 363.820 480.500 400.660 480 C 436.023 479.520, 437.660 479.413, 441.500 477.338 C 452.301 471.499, 457.476 459.575, 453.843 448.899 C 453.207 447.030, 441.570 427.050, 427.983 404.500 C 331.693 244.686, 275.440 152.092, 273.161 149.658 C 267.774 143.906, 256.726 140.672, 249.994 142.876 M 245.860 225.508 C 240.354 227.274, 231.694 234.719, 228.998 240.003 C 224.717 248.395, 224.703 249.336, 227.972 307.513 C 229.671 337.756, 231.510 364.169, 232.058 366.208 C 234.683 375.976, 245.481 384, 256 384 C 266.525 384, 277.345 375.955, 279.928 366.208 C 280.469 364.169, 282.301 337.646, 283.999 307.270 C 287.265 248.874, 287.256 248.282, 282.980 240.006 C 280.585 235.369, 274.569 229.750, 269 226.948 C 263.278 224.069, 252.448 223.395, 245.860 225.508 M 414.993 313.506 C 405.922 318.734, 398.588 323.386, 398.696 323.843 C 398.803 324.300, 400.516 327.402, 402.502 330.735 L 406.112 336.796 410.399 334.401 C 422.721 327.514, 438.281 332.601, 444.103 345.419 C 446.677 351.087, 446.592 360.146, 443.912 365.682 C 441.780 370.087, 434.699 377, 432.320 377 C 431.594 377, 431 377.204, 431 377.453 C 431 378.761, 443.286 398, 444.121 398 C 444.662 398, 446.904 396.988, 449.104 395.750 C 452.582 393.793, 453.035 393.142, 452.577 390.750 C 451.653 385.926, 453.506 383.378, 461.196 378.899 C 465.213 376.559, 469.512 373.746, 470.750 372.648 C 475.174 368.723, 474.174 366.129, 456.344 335.300 C 447.183 319.460, 438.970 305.952, 438.094 305.282 C 434.904 302.844, 431.211 304.159, 414.993 313.506 M 247.852 401.391 C 231.409 407.265, 226.623 428.469, 238.955 440.801 C 243.512 445.358, 247.401 447.135, 254.156 447.748 C 261.385 448.403, 267.308 446.346, 272.386 441.414 C 277.343 436.600, 279.179 432.642, 279.749 425.543 C 281.130 408.328, 264.239 395.537, 247.852 401.391" stroke="none" fill="#fac109" fill-rule="evenodd"/></svg>